<?xml version="1.0" encoding="UTF-8" standalone="no"?>
<!-- Created with Inkscape (http://www.inkscape.org/) -->

<svg
   xmlns:dc="http://purl.org/dc/elements/1.1/"
   xmlns:cc="http://creativecommons.org/ns#"
   xmlns:rdf="http://www.w3.org/1999/02/22-rdf-syntax-ns#"
   xmlns:svg="http://www.w3.org/2000/svg"
   xmlns="http://www.w3.org/2000/svg"
   xmlns:sodipodi="http://sodipodi.sourceforge.net/DTD/sodipodi-0.dtd"
   xmlns:inkscape="http://www.inkscape.org/namespaces/inkscape"
   width="11.288889mm"
   height="11.288891mm"
   viewBox="0 0 11.288889 11.288891"
   version="1.1"
   id="svg19"
   inkscape:version="0.92.2 (5c3e80d, 2017-08-06)"
   sodipodi:docname="github.svg">
  <defs
     id="defs13" />
  <sodipodi:namedview
     id="base"
     pagecolor="#ffffff"
     bordercolor="#666666"
     borderopacity="1.0"
     inkscape:pageopacity="0.0"
     inkscape:pageshadow="2"
     inkscape:zoom="1.979899"
     inkscape:cx="361.44243"
     inkscape:cy="-72.636163"
     inkscape:document-units="mm"
     inkscape:current-layer="layer1"
     showgrid="false"
     inkscape:window-width="1920"
     inkscape:window-height="1057"
     inkscape:window-x="-8"
     inkscape:window-y="-8"
     inkscape:window-maximized="1"
     fit-margin-top="0"
     fit-margin-left="0"
     fit-margin-right="0"
     fit-margin-bottom="0" />
  <metadata
     id="metadata16">
    <rdf:RDF>
      <cc:Work
         rdf:about="">
        <dc:format>image/svg+xml</dc:format>
        <dc:type
           rdf:resource="http://purl.org/dc/dcmitype/StillImage" />
        <dc:title></dc:title>
      </cc:Work>
    </rdf:RDF>
  </metadata>
  <g
     inkscape:label="Layer 1"
     inkscape:groupmode="layer"
     id="layer1"
     transform="translate(-0.46341865,-0.20374439)">
    <path
       style="fill:#000000;fill-opacity:1;fill-rule:nonzero;stroke:none;stroke-width:0.35277775"
       d="m 11.752308,5.8481947 c 0,1.02387 -0.25218,1.96783 -0.75654,2.83323 -0.50437,0.86406 -1.1906293,1.5503203 -2.0546593,2.0546803 -0.86541,0.50437 -1.80936,0.75653 -2.83325,0.75653 -1.02388,0 -1.96784,-0.25216 -2.83324,-0.75653 -0.86403,-0.50436 -1.55029,-1.1906203 -2.05466,-2.0546803 -0.50436005,-0.8654 -0.75654005,-1.80936 -0.75654005,-2.83323 0,-1.02387 0.25218,-1.96783 0.75654005,-2.83326 0.50437,-0.8640303 1.19063,-1.5502903 2.05466,-2.05465031 0.8654,-0.50437 1.80936,-0.75654 2.83324,-0.75654 1.02389,0 1.96784,0.25217 2.83325,0.75654 0.86403,0.50436001 1.5502893,1.19062001 2.0546593,2.05465031 0.50436,0.86543 0.75654,1.80939 0.75654,2.83326 m -0.9412,0 c 0,-0.63666 -0.12402,-1.24576 -0.37483,-1.82591 -0.249419,-0.58152 -0.5842893,-1.08038 -1.0032093,-1.4993 -0.41892,-0.4189303 -0.91777,-0.7537803 -1.49931,-1.0032303 -0.58015,-0.25079 -1.18924,-0.37483 -1.8259,-0.37483 -0.63665,0 -1.24574,0.12404 -1.8259,0.37483 -0.58153,0.24945 -1.08038,0.5843 -1.4993,1.0032303 -0.41892,0.41892 -0.75379,0.91778 -1.00321,1.4993 -0.25081,0.58015 -0.37483,1.18925 -0.37483,1.82591 0,1.02387 0.30455,1.95129 0.91502,2.78225 0.60909,0.8296 1.40146,1.3973603 2.37711,1.7005003 V 9.0893447 c -0.26458,0.0346 -0.43408,0.051 -0.50711,0.051 -0.53882,0 -0.91364,-0.24391 -1.12448,-0.73448 -0.073,-0.18602 -0.16123,-0.34036 -0.26459,-0.46302 -0.0248,-0.0289 -0.0758,-0.0758 -0.15434,-0.13917 -0.0785,-0.0648 -0.14745,-0.12266 -0.20946,-0.17639 -0.0606,-0.0538 -0.0923,-0.0937 -0.0923,-0.11853 0,-0.0579 0.0689,-0.0882 0.20671,-0.0882 0.14193,0 0.26734,0.0358 0.37758,0.10749 0.11024,0.0703 0.20395,0.15572 0.27974,0.25633 0.0758,0.10058 0.15296,0.20257 0.23151,0.30593 0.0785,0.10195 0.17777,0.19015 0.29766,0.26042 0.11989,0.0717 0.25907,0.10612 0.41479,0.10612 0.2067,0 0.40514,-0.0332 0.59531,-0.10196 0.0785,-0.27975 0.23289,-0.49748 0.46302,-0.65458 -0.81304,-0.0786 -1.41524,-0.2825 -1.80799,-0.61323 -0.39136,-0.33073 -0.58704,-0.88057 -0.58704,-1.65089 0,-0.57739 0.17915,-1.06246 0.53606,-1.45521 -0.0689,-0.20532 -0.10336,-0.41064 -0.10336,-0.61736 0,-0.28388 0.0662,-0.55122 0.19844,-0.80063 0.27974,0 0.52641,0.0482 0.74277,0.1433 0.21635,0.0951 0.46302,0.24394 0.74276,0.44513 0.37207,-0.0882 0.78548,-0.13229 1.24161,-0.13229 0.39274,0 0.76619,0.0386 1.12448,0.11712 0.27974,-0.19568 0.52503,-0.34036 0.73863,-0.43409 0.21359,-0.0923 0.4575,-0.13917 0.73174,-0.13917 0.13229,0.24941 0.19843,0.51675 0.19843,0.80063 0,0.21085 -0.0345,0.41479 -0.10335,0.61048 0.35691,0.401 0.53606,0.88882 0.53606,1.46209 0,0.77032 -0.19569,1.32154 -0.58705,1.65777 -0.39274,0.33489 -0.99218,0.54021 -1.80109,0.61323 0.33762,0.23153 0.50712,0.55122 0.50712,0.96326 v 1.6605303 c 0.97564,-0.30314 1.76802,-0.8709003 2.37711,-1.7005003 0.6104693,-0.83096 0.9150193,-1.75838 0.9150193,-2.78225"
       id="path7158"
       inkscape:connector-curvature="0" />
  </g>
</svg>
