<?xml version="1.0" encoding="UTF-8" standalone="no"?>
<!-- Created with Inkscape (http://www.inkscape.org/) -->

<svg
   xmlns:dc="http://purl.org/dc/elements/1.1/"
   xmlns:cc="http://creativecommons.org/ns#"
   xmlns:rdf="http://www.w3.org/1999/02/22-rdf-syntax-ns#"
   xmlns:svg="http://www.w3.org/2000/svg"
   xmlns="http://www.w3.org/2000/svg"
   xmlns:sodipodi="http://sodipodi.sourceforge.net/DTD/sodipodi-0.dtd"
   xmlns:inkscape="http://www.inkscape.org/namespaces/inkscape"
   width="11.28884mm"
   height="11.13179mm"
   viewBox="0 0 11.28884 11.13179"
   version="1.1"
   id="svg19"
   inkscape:version="0.92.2 (5c3e80d, 2017-08-06)"
   sodipodi:docname="linkedin.svg">
  <defs
     id="defs13" />
  <sodipodi:namedview
     id="base"
     pagecolor="#ffffff"
     bordercolor="#666666"
     borderopacity="1.0"
     inkscape:pageopacity="0.0"
     inkscape:pageshadow="2"
     inkscape:zoom="7.9195959"
     inkscape:cx="21.340172"
     inkscape:cy="25.705986"
     inkscape:document-units="mm"
     inkscape:current-layer="layer1"
     showgrid="false"
     inkscape:window-width="958"
     inkscape:window-height="1048"
     inkscape:window-x="953"
     inkscape:window-y="0"
     inkscape:window-maximized="0"
     fit-margin-top="0"
     fit-margin-left="0"
     fit-margin-right="0"
     fit-margin-bottom="0" />
  <metadata
     id="metadata16">
    <rdf:RDF>
      <cc:Work
         rdf:about="">
        <dc:format>image/svg+xml</dc:format>
        <dc:type
           rdf:resource="http://purl.org/dc/dcmitype/StillImage" />
        <dc:title></dc:title>
      </cc:Work>
    </rdf:RDF>
  </metadata>
  <g
     inkscape:label="Layer 1"
     inkscape:groupmode="layer"
     id="layer1"
     transform="translate(-0.56529332,-0.21385376)">
    <path
       style="fill:#000000;fill-opacity:1;fill-rule:nonzero;stroke:none;stroke-width:0.35277775"
       d="m 4.4871933,6.0567338 c 0,-0.96739 -0.0317,-1.7776799 -0.0648,-2.4763299 h 2.0960001 l 0.11162,1.0803898 h 0.0482 c 0.31695,-0.5085299 1.0955402,-1.2540199 2.3977802,-1.2540199 1.5875004,0 2.7781404,1.06246 2.7781404,3.3500102 v 4.58886 H 9.4412434 v -4.3036 c 0,-1.0004801 -0.3500299,-1.6826101 -1.2237,-1.6826101 -0.6655901,0 -1.0624701,0.46027 -1.2374801,0.90399 -0.0634,0.1598398 -0.0799,0.3817401 -0.0799,0.6036001 v 4.47862 H 4.4872235 Z M 0.62868332,3.5804039 H 3.0430034 V 11.344274 H 0.62868332 Z M 3.1215534,1.4209838 c 0,0.667 -0.49196,1.2058 -1.30224,1.2058 -0.7620601,0 -1.25402008,-0.5388 -1.25402008,-1.2058 0,-0.68351005 0.50849998,-1.20713004 1.28571008,-1.20713004 0.77859,0 1.25539,0.52361999 1.27055,1.20713004"
       id="path7174"
       inkscape:connector-curvature="0" />
  </g>
</svg>
